<svg xmlns="http://www.w3.org/2000/svg" xmlns:xlink="http://www.w3.org/1999/xlink" preserveAspectRatio="xMidYMid" width="156" height="69" viewBox="0 0 766 189" >
  <defs>
    <style>
      .cls-1 {
        fill: #000;
        fill-rule: evenodd;
      }
    </style>
  </defs>
  <path d="M15.000,14.000 C24.666,14.000 34.334,14.000 44.000,14.000 C44.000,46.997 44.000,80.003 44.000,113.000 C44.333,113.000 44.667,113.000 45.000,113.000 C45.804,111.547 47.868,108.273 49.000,107.000 C50.000,106.333 51.000,105.667 52.000,105.000 C52.000,104.333 52.000,103.667 52.000,103.000 C53.333,102.000 54.667,101.000 56.000,100.000 C56.000,99.333 56.000,98.667 56.000,98.000 C57.000,97.333 58.000,96.667 59.000,96.000 C59.000,95.333 59.000,94.667 59.000,94.000 C60.333,93.000 61.667,92.000 63.000,91.000 C63.000,90.333 63.000,89.667 63.000,89.000 C64.333,88.000 65.667,87.000 67.000,86.000 C67.000,85.333 67.000,84.667 67.000,84.000 C68.333,83.000 69.667,82.000 71.000,81.000 C71.333,80.000 71.667,79.000 72.000,78.000 C72.667,77.667 73.333,77.333 74.000,77.000 C74.000,76.333 74.000,75.667 74.000,75.000 C74.667,74.667 75.333,74.333 76.000,74.000 C76.000,73.667 76.000,73.333 76.000,73.000 C76.667,72.667 77.333,72.333 78.000,72.000 C78.000,71.333 78.000,70.667 78.000,70.000 C79.333,69.000 80.667,68.000 82.000,67.000 C82.000,66.333 82.000,65.667 82.000,65.000 C82.333,65.000 82.667,65.000 83.000,65.000 C84.333,63.334 85.667,61.667 87.000,60.000 C97.666,60.000 108.334,60.000 119.000,60.000 C119.000,60.333 119.000,60.667 119.000,61.000 C116.931,62.715 116.620,64.737 115.000,67.000 C113.667,68.000 112.333,69.000 111.000,70.000 C111.000,70.667 111.000,71.333 111.000,72.000 C109.667,73.000 108.333,74.000 107.000,75.000 C107.000,75.667 107.000,76.333 107.000,77.000 C106.333,77.333 105.667,77.667 105.000,78.000 C104.667,79.000 104.333,80.000 104.000,81.000 C102.333,82.333 100.666,83.667 99.000,85.000 C99.000,85.667 99.000,86.333 99.000,87.000 C97.667,88.000 96.333,89.000 95.000,90.000 C95.000,90.667 95.000,91.333 95.000,92.000 C94.000,92.667 93.000,93.333 92.000,94.000 C92.000,94.667 92.000,95.333 92.000,96.000 C91.333,96.333 90.667,96.667 90.000,97.000 C90.000,97.333 90.000,97.667 90.000,98.000 C89.333,98.333 88.667,98.667 88.000,99.000 C88.000,99.667 88.000,100.333 88.000,101.000 C87.667,101.000 87.333,101.000 87.000,101.000 C85.031,103.358 83.551,104.057 83.000,108.000 C86.094,110.682 86.029,113.418 88.000,117.000 C88.333,117.000 88.667,117.000 89.000,117.000 C89.000,117.667 89.000,118.333 89.000,119.000 C89.667,119.333 90.333,119.667 91.000,120.000 C91.000,120.667 91.000,121.333 91.000,122.000 C91.333,122.000 91.667,122.000 92.000,122.000 C92.000,122.667 92.000,123.333 92.000,124.000 C92.333,124.000 92.667,124.000 93.000,124.000 C93.333,125.333 93.667,126.667 94.000,128.000 C94.667,128.333 95.333,128.667 96.000,129.000 C96.667,131.000 97.333,133.000 98.000,135.000 C98.667,135.333 99.333,135.667 100.000,136.000 C100.333,137.333 100.667,138.667 101.000,140.000 C101.667,140.333 102.333,140.667 103.000,141.000 C103.667,143.000 104.333,145.000 105.000,147.000 C105.667,147.333 106.333,147.667 107.000,148.000 C107.000,148.667 107.000,149.333 107.000,150.000 C107.333,150.000 107.667,150.000 108.000,150.000 C108.000,150.667 108.000,151.333 108.000,152.000 C108.333,152.000 108.667,152.000 109.000,152.000 C109.000,152.667 109.000,153.333 109.000,154.000 C109.333,154.000 109.667,154.000 110.000,154.000 C110.000,154.667 110.000,155.333 110.000,156.000 C110.667,156.333 111.333,156.667 112.000,157.000 C112.667,159.000 113.333,161.000 114.000,163.000 C114.667,163.333 115.333,163.667 116.000,164.000 C116.000,164.667 116.000,165.333 116.000,166.000 C117.343,168.376 119.171,169.892 120.000,173.000 C109.001,173.000 97.999,173.000 87.000,173.000 C86.282,169.929 84.322,168.331 83.000,166.000 C83.000,165.333 83.000,164.667 83.000,164.000 C82.333,163.667 81.667,163.333 81.000,163.000 C81.000,162.333 81.000,161.667 81.000,161.000 C80.667,161.000 80.333,161.000 80.000,161.000 C80.000,160.333 80.000,159.667 80.000,159.000 C79.667,159.000 79.333,159.000 79.000,159.000 C79.000,158.333 79.000,157.667 79.000,157.000 C78.667,157.000 78.333,157.000 78.000,157.000 C78.000,156.333 78.000,155.667 78.000,155.000 C77.333,154.667 76.667,154.333 76.000,154.000 C75.667,152.667 75.333,151.333 75.000,150.000 C74.333,149.667 73.667,149.333 73.000,149.000 C72.333,147.000 71.667,145.000 71.000,143.000 C70.667,143.000 70.333,143.000 70.000,143.000 C69.667,141.667 69.333,140.333 69.000,139.000 C67.530,136.323 65.916,135.836 65.000,132.000 C64.333,132.000 63.667,132.000 63.000,132.000 C62.414,134.228 62.171,134.523 61.000,136.000 C60.667,136.000 60.333,136.000 60.000,136.000 C60.000,136.667 60.000,137.333 60.000,138.000 C59.333,138.333 58.667,138.667 58.000,139.000 C58.000,139.333 58.000,139.667 58.000,140.000 C57.333,140.333 56.667,140.667 56.000,141.000 C56.000,141.667 56.000,142.333 56.000,143.000 C55.333,143.333 54.667,143.667 54.000,144.000 C54.000,144.667 54.000,145.333 54.000,146.000 C53.000,146.667 52.000,147.333 51.000,148.000 C51.000,148.667 51.000,149.333 51.000,150.000 C49.667,151.000 48.333,152.000 47.000,153.000 C47.000,153.667 47.000,154.333 47.000,155.000 C46.000,155.667 45.000,156.333 44.000,157.000 C44.000,162.333 44.000,167.667 44.000,173.000 C34.334,173.000 24.666,173.000 15.000,173.000 C15.000,120.005 15.000,66.995 15.000,14.000 ZM460.000,14.000 C469.666,14.000 479.334,14.000 489.000,14.000 C489.000,66.995 489.000,120.005 489.000,173.000 C486.667,173.000 484.333,173.000 482.000,173.000 C479.259,167.916 473.524,163.817 472.000,158.000 C468.992,158.428 468.770,158.608 467.000,160.000 C467.000,160.333 467.000,160.667 467.000,161.000 C466.000,161.333 465.000,161.667 464.000,162.000 C463.667,162.667 463.333,163.333 463.000,164.000 C462.333,164.000 461.667,164.000 461.000,164.000 C460.667,164.667 460.333,165.333 460.000,166.000 C458.667,166.333 457.333,166.667 456.000,167.000 C455.667,167.667 455.333,168.333 455.000,169.000 C453.334,169.333 451.667,169.667 450.000,170.000 C450.000,170.333 450.000,170.667 450.000,171.000 C449.333,171.000 448.667,171.000 448.000,171.000 C448.000,171.333 448.000,171.667 448.000,172.000 C447.000,172.000 446.000,172.000 445.000,172.000 C445.000,172.333 445.000,172.667 445.000,173.000 C443.667,173.000 442.333,173.000 441.000,173.000 C441.000,173.333 441.000,173.667 441.000,174.000 C438.667,174.000 436.333,174.000 434.000,174.000 C434.000,174.333 434.000,174.667 434.000,175.000 C431.334,175.000 428.666,175.000 426.000,175.000 C426.000,174.667 426.000,174.333 426.000,174.000 C423.334,174.000 420.666,174.000 418.000,174.000 C418.000,173.667 418.000,173.333 418.000,173.000 C416.667,173.000 415.333,173.000 414.000,173.000 C414.000,172.667 414.000,172.333 414.000,172.000 C413.000,172.000 412.000,172.000 411.000,172.000 C411.000,171.667 411.000,171.333 411.000,171.000 C410.333,171.000 409.667,171.000 409.000,171.000 C409.000,170.667 409.000,170.333 409.000,170.000 C408.000,170.000 407.000,170.000 406.000,170.000 C406.000,169.667 406.000,169.333 406.000,169.000 C405.333,169.000 404.667,169.000 404.000,169.000 C404.000,168.667 404.000,168.333 404.000,168.000 C403.333,168.000 402.667,168.000 402.000,168.000 C401.667,167.333 401.333,166.667 401.000,166.000 C400.333,166.000 399.667,166.000 399.000,166.000 C398.667,165.333 398.333,164.667 398.000,164.000 C397.333,164.000 396.667,164.000 396.000,164.000 C395.333,163.000 394.667,162.000 394.000,161.000 C393.333,161.000 392.667,161.000 392.000,161.000 C392.000,160.667 392.000,160.333 392.000,160.000 C390.667,159.000 389.333,158.000 388.000,157.000 C388.000,156.333 388.000,155.667 388.000,155.000 C386.667,154.000 385.333,153.000 384.000,152.000 C384.000,151.333 384.000,150.667 384.000,150.000 C383.000,149.333 382.000,148.667 381.000,148.000 C381.000,147.333 381.000,146.667 381.000,146.000 C380.667,146.000 380.333,146.000 380.000,146.000 C379.333,144.000 378.667,142.000 378.000,140.000 C377.667,140.000 377.333,140.000 377.000,140.000 C376.333,137.000 375.667,134.000 375.000,131.000 C374.667,131.000 374.333,131.000 374.000,131.000 C374.000,129.667 374.000,128.333 374.000,127.000 C373.667,127.000 373.333,127.000 373.000,127.000 C373.000,119.334 373.000,111.666 373.000,104.000 C373.333,104.000 373.667,104.000 374.000,104.000 C374.000,102.334 374.000,100.666 374.000,99.000 C374.333,99.000 374.667,99.000 375.000,99.000 C375.667,96.000 376.333,93.000 377.000,90.000 C377.333,90.000 377.667,90.000 378.000,90.000 C378.667,88.000 379.333,86.000 380.000,84.000 C380.333,84.000 380.667,84.000 381.000,84.000 C381.000,83.333 381.000,82.667 381.000,82.000 C381.667,81.667 382.333,81.333 383.000,81.000 C383.000,80.333 383.000,79.667 383.000,79.000 C384.666,77.667 386.333,76.333 388.000,75.000 C391.000,71.667 394.000,68.333 397.000,65.000 C397.667,65.000 398.333,65.000 399.000,65.000 C399.333,64.333 399.667,63.667 400.000,63.000 C400.667,63.000 401.333,63.000 402.000,63.000 C402.000,62.667 402.000,62.333 402.000,62.000 C404.000,61.333 406.000,60.667 408.000,60.000 C408.000,59.667 408.000,59.333 408.000,59.000 C411.000,58.333 414.000,57.667 417.000,57.000 C417.000,56.667 417.000,56.333 417.000,56.000 C419.000,56.000 421.000,56.000 423.000,56.000 C434.328,52.783 455.650,57.900 458.000,66.000 C458.667,66.000 459.333,66.000 460.000,66.000 C460.000,48.668 460.000,31.332 460.000,14.000 ZM624.000,14.000 C633.332,14.000 642.668,14.000 652.000,14.000 C652.000,31.332 652.000,48.668 652.000,66.000 C652.333,66.000 652.667,66.000 653.000,66.000 C660.221,56.996 680.019,52.012 695.000,57.000 C696.333,57.000 697.667,57.000 699.000,57.000 C718.895,64.833 731.376,77.913 738.000,99.000 C738.000,100.666 738.000,102.334 738.000,104.000 C738.333,104.000 738.667,104.000 739.000,104.000 C739.000,106.000 739.000,108.000 739.000,110.000 C739.333,110.000 739.667,110.000 740.000,110.000 C741.601,115.698 739.045,122.528 738.000,126.000 C737.667,129.333 737.333,132.667 737.000,136.000 C736.667,136.000 736.333,136.000 736.000,136.000 C735.667,137.333 735.333,138.667 735.000,140.000 C734.667,140.000 734.333,140.000 734.000,140.000 C734.000,141.000 734.000,142.000 734.000,143.000 C733.667,143.000 733.333,143.000 733.000,143.000 C733.000,143.667 733.000,144.333 733.000,145.000 C732.667,145.000 732.333,145.000 732.000,145.000 C732.000,145.667 732.000,146.333 732.000,147.000 C731.333,147.333 730.667,147.667 730.000,148.000 C730.000,148.667 730.000,149.333 730.000,150.000 C729.333,150.333 728.667,150.667 728.000,151.000 C728.000,151.667 728.000,152.333 728.000,153.000 C727.667,153.000 727.333,153.000 727.000,153.000 C725.561,154.760 724.728,155.409 724.000,158.000 C723.333,158.000 722.667,158.000 722.000,158.000 C719.214,162.833 715.035,164.294 710.000,167.000 C710.000,167.333 710.000,167.667 710.000,168.000 C709.333,168.000 708.667,168.000 708.000,168.000 C708.000,168.333 708.000,168.667 708.000,169.000 C706.667,169.333 705.333,169.667 704.000,170.000 C704.000,170.333 704.000,170.667 704.000,171.000 C703.000,171.000 702.000,171.000 701.000,171.000 C701.000,171.333 701.000,171.667 701.000,172.000 C700.333,172.000 699.667,172.000 699.000,172.000 C699.000,172.333 699.000,172.667 699.000,173.000 C694.667,173.333 690.333,173.667 686.000,174.000 C686.000,174.333 686.000,174.667 686.000,175.000 C682.973,175.842 678.510,174.427 677.000,174.000 C674.334,174.000 671.666,174.000 669.000,174.000 C669.000,173.667 669.000,173.333 669.000,173.000 C667.667,173.000 666.333,173.000 665.000,173.000 C665.000,172.667 665.000,172.333 665.000,172.000 C663.000,171.667 661.000,171.333 659.000,171.000 C659.000,170.667 659.000,170.333 659.000,170.000 C657.000,169.333 655.000,168.667 653.000,168.000 C653.000,167.667 653.000,167.333 653.000,167.000 C652.333,167.000 651.667,167.000 651.000,167.000 C651.000,166.667 651.000,166.333 651.000,166.000 C650.000,165.667 649.000,165.333 648.000,165.000 C647.667,164.333 647.333,163.667 647.000,163.000 C646.333,163.000 645.667,163.000 645.000,163.000 C644.000,161.667 643.000,160.333 642.000,159.000 C640.000,157.334 638.000,155.667 636.000,154.000 C636.000,153.333 636.000,152.667 636.000,152.000 C635.000,151.333 634.000,150.667 633.000,150.000 C632.667,148.667 632.333,147.333 632.000,146.000 C631.333,145.667 630.667,145.333 630.000,145.000 C629.667,143.333 629.333,141.666 629.000,140.000 C628.667,140.000 628.333,140.000 628.000,140.000 C627.667,138.667 627.333,137.333 627.000,136.000 C626.667,136.000 626.333,136.000 626.000,136.000 C626.000,134.667 626.000,133.333 626.000,132.000 C625.667,132.000 625.333,132.000 625.000,132.000 C625.000,130.667 625.000,129.333 625.000,128.000 C624.667,128.000 624.333,128.000 624.000,128.000 C624.000,90.004 624.000,51.996 624.000,14.000 ZM242.000,60.000 C242.000,97.663 242.000,135.337 242.000,173.000 C239.667,173.000 237.333,173.000 235.000,173.000 C231.667,168.001 228.333,163.000 225.000,158.000 C224.333,158.000 223.667,158.000 223.000,158.000 C221.274,160.703 218.679,161.191 216.000,163.000 C215.667,163.667 215.333,164.333 215.000,165.000 C214.000,165.333 213.000,165.667 212.000,166.000 C212.000,166.333 212.000,166.667 212.000,167.000 C210.667,167.333 209.333,167.667 208.000,168.000 C208.000,168.333 208.000,168.667 208.000,169.000 C206.667,169.333 205.333,169.667 204.000,170.000 C204.000,170.333 204.000,170.667 204.000,171.000 C203.000,171.000 202.000,171.000 201.000,171.000 C201.000,171.333 201.000,171.667 201.000,172.000 C200.333,172.000 199.667,172.000 199.000,172.000 C199.000,172.333 199.000,172.667 199.000,173.000 C197.667,173.000 196.333,173.000 195.000,173.000 C195.000,173.333 195.000,173.667 195.000,174.000 C192.334,174.000 189.666,174.000 187.000,174.000 C187.000,174.333 187.000,174.667 187.000,175.000 C184.667,175.000 182.333,175.000 180.000,175.000 C180.000,174.667 180.000,174.333 180.000,174.000 C177.000,174.000 174.000,174.000 171.000,174.000 C171.000,173.667 171.000,173.333 171.000,173.000 C169.667,173.000 168.333,173.000 167.000,173.000 C167.000,172.667 167.000,172.333 167.000,172.000 C166.000,172.000 165.000,172.000 164.000,172.000 C164.000,171.667 164.000,171.333 164.000,171.000 C163.000,171.000 162.000,171.000 161.000,171.000 C161.000,170.667 161.000,170.333 161.000,170.000 C160.333,170.000 159.667,170.000 159.000,170.000 C159.000,169.667 159.000,169.333 159.000,169.000 C158.000,169.000 157.000,169.000 156.000,169.000 C155.667,168.333 155.333,167.667 155.000,167.000 C153.667,166.667 152.333,166.333 151.000,166.000 C150.667,165.333 150.333,164.667 150.000,164.000 C149.333,164.000 148.667,164.000 148.000,164.000 C148.000,163.667 148.000,163.333 148.000,163.000 C145.693,161.086 144.287,158.922 141.000,158.000 C140.267,155.410 139.440,154.760 138.000,153.000 C137.667,153.000 137.333,153.000 137.000,153.000 C137.000,152.333 137.000,151.667 137.000,151.000 C136.333,150.667 135.667,150.333 135.000,150.000 C134.667,148.667 134.333,147.333 134.000,146.000 C133.667,146.000 133.333,146.000 133.000,146.000 C132.333,144.000 131.667,142.000 131.000,140.000 C130.667,140.000 130.333,140.000 130.000,140.000 C126.974,133.056 125.352,112.067 128.000,103.000 C128.000,101.000 128.000,99.000 128.000,97.000 C130.333,91.667 132.667,86.333 135.000,81.000 C135.667,80.667 136.333,80.333 137.000,80.000 C137.000,79.333 137.000,78.667 137.000,78.000 C138.000,77.333 139.000,76.667 140.000,76.000 C140.000,75.333 140.000,74.667 140.000,74.000 C140.667,73.667 141.333,73.333 142.000,73.000 C143.333,71.333 144.667,69.666 146.000,68.000 C146.667,68.000 147.333,68.000 148.000,68.000 C148.333,67.333 148.667,66.667 149.000,66.000 C149.667,66.000 150.333,66.000 151.000,66.000 C151.667,65.000 152.333,64.000 153.000,63.000 C153.667,63.000 154.333,63.000 155.000,63.000 C155.000,62.667 155.000,62.333 155.000,62.000 C157.000,61.333 159.000,60.667 161.000,60.000 C161.000,59.667 161.000,59.333 161.000,59.000 C162.000,59.000 163.000,59.000 164.000,59.000 C164.000,58.667 164.000,58.333 164.000,58.000 C165.000,58.000 166.000,58.000 167.000,58.000 C167.000,57.667 167.000,57.333 167.000,57.000 C168.000,57.000 169.000,57.000 170.000,57.000 C170.000,56.667 170.000,56.333 170.000,56.000 C172.000,56.000 174.000,56.000 176.000,56.000 C176.000,55.667 176.000,55.333 176.000,55.000 C181.673,53.400 195.294,55.541 199.000,57.000 C199.000,57.333 199.000,57.667 199.000,58.000 C200.000,58.000 201.000,58.000 202.000,58.000 C202.000,58.333 202.000,58.667 202.000,59.000 C202.667,59.000 203.333,59.000 204.000,59.000 C204.000,59.333 204.000,59.667 204.000,60.000 C205.000,60.000 206.000,60.000 207.000,60.000 C207.333,60.667 207.667,61.333 208.000,62.000 C210.000,62.667 212.000,63.333 214.000,64.000 C214.667,65.000 215.333,66.000 216.000,67.000 C216.667,67.000 217.333,67.000 218.000,67.000 C218.333,67.667 218.667,68.333 219.000,69.000 C220.256,70.159 221.914,70.660 223.000,72.000 C232.261,69.424 227.860,60.083 242.000,60.000 ZM557.000,146.000 C567.778,146.277 574.902,145.319 581.000,141.000 C582.000,139.667 583.000,138.333 584.000,137.000 C586.353,134.644 588.150,134.097 589.000,130.000 C594.271,131.353 596.998,137.215 600.000,141.000 C601.000,141.333 602.000,141.667 603.000,142.000 C603.333,143.000 603.667,144.000 604.000,145.000 C605.000,145.333 606.000,145.667 607.000,146.000 C607.333,147.000 607.667,148.000 608.000,149.000 C608.667,149.333 609.333,149.667 610.000,150.000 C610.000,150.667 610.000,151.333 610.000,152.000 C606.997,153.995 609.550,152.918 608.000,155.000 C606.000,156.667 604.000,158.334 602.000,160.000 C602.000,160.333 602.000,160.667 602.000,161.000 C594.519,166.389 585.839,171.056 576.000,174.000 C573.334,174.000 570.666,174.000 568.000,174.000 C568.000,174.333 568.000,174.667 568.000,175.000 C562.334,174.667 556.666,174.333 551.000,174.000 C551.000,173.667 551.000,173.333 551.000,173.000 C549.333,173.000 547.667,173.000 546.000,173.000 C546.000,172.667 546.000,172.333 546.000,172.000 C545.333,172.000 544.667,172.000 544.000,172.000 C544.000,171.667 544.000,171.333 544.000,171.000 C543.000,171.000 542.000,171.000 541.000,171.000 C541.000,170.667 541.000,170.333 541.000,170.000 C539.000,169.333 537.000,168.667 535.000,168.000 C535.000,167.667 535.000,167.333 535.000,167.000 C533.667,166.667 532.333,166.333 531.000,166.000 C530.667,165.333 530.333,164.667 530.000,164.000 C529.333,164.000 528.667,164.000 528.000,164.000 C527.000,162.667 526.000,161.333 525.000,160.000 C522.000,157.334 519.000,154.666 516.000,152.000 C515.667,150.667 515.333,149.333 515.000,148.000 C514.333,147.667 513.667,147.333 513.000,147.000 C512.667,145.667 512.333,144.333 512.000,143.000 C511.667,143.000 511.333,143.000 511.000,143.000 C510.667,141.667 510.333,140.333 510.000,139.000 C509.667,139.000 509.333,139.000 509.000,139.000 C508.667,136.667 508.333,134.333 508.000,132.000 C507.667,132.000 507.333,132.000 507.000,132.000 C505.994,128.705 504.757,107.296 506.000,103.000 C506.333,103.000 506.667,103.000 507.000,103.000 C507.333,99.667 507.667,96.333 508.000,93.000 C508.333,93.000 508.667,93.000 509.000,93.000 C509.333,91.667 509.667,90.333 510.000,89.000 C510.333,89.000 510.667,89.000 511.000,89.000 C511.333,87.334 511.667,85.667 512.000,84.000 C512.667,83.667 513.333,83.333 514.000,83.000 C514.000,82.333 514.000,81.667 514.000,81.000 C514.667,80.667 515.333,80.333 516.000,80.000 C516.000,79.333 516.000,78.667 516.000,78.000 C517.667,76.667 519.334,75.333 521.000,74.000 C523.666,71.000 526.334,68.000 529.000,65.000 C529.667,65.000 530.333,65.000 531.000,65.000 C531.333,64.333 531.667,63.667 532.000,63.000 C532.667,63.000 533.333,63.000 534.000,63.000 C534.000,62.667 534.000,62.333 534.000,62.000 C536.000,61.333 538.000,60.667 540.000,60.000 C540.000,59.667 540.000,59.333 540.000,59.000 C543.000,58.333 546.000,57.667 549.000,57.000 C549.000,56.667 549.000,56.333 549.000,56.000 C551.000,56.000 553.000,56.000 555.000,56.000 C555.000,55.667 555.000,55.333 555.000,55.000 C562.614,52.858 581.544,57.029 586.000,59.000 C586.000,59.333 586.000,59.667 586.000,60.000 C587.333,60.333 588.667,60.667 590.000,61.000 C590.000,61.333 590.000,61.667 590.000,62.000 C591.333,62.333 592.667,62.667 594.000,63.000 C594.333,63.667 594.667,64.333 595.000,65.000 C595.667,65.000 596.333,65.000 597.000,65.000 C597.667,66.000 598.333,67.000 599.000,68.000 C603.575,71.256 609.280,73.957 610.000,81.000 C609.000,81.667 608.000,82.333 607.000,83.000 C607.000,83.667 607.000,84.333 607.000,85.000 C605.334,86.333 603.666,87.667 602.000,89.000 C602.000,89.667 602.000,90.333 602.000,91.000 C600.334,92.333 598.667,93.667 597.000,95.000 C597.000,95.667 597.000,96.333 597.000,97.000 C596.000,97.667 595.000,98.333 594.000,99.000 C593.667,100.000 593.333,101.000 593.000,102.000 C591.000,103.667 589.000,105.334 587.000,107.000 C587.000,107.667 587.000,108.333 587.000,109.000 C585.334,110.333 583.667,111.667 582.000,113.000 C582.000,113.667 582.000,114.333 582.000,115.000 C581.000,115.667 580.000,116.333 579.000,117.000 C579.000,117.667 579.000,118.333 579.000,119.000 C577.000,120.666 575.000,122.333 573.000,124.000 C573.000,124.667 573.000,125.333 573.000,126.000 C571.333,127.333 569.667,128.667 568.000,130.000 C568.000,130.667 568.000,131.333 568.000,132.000 C567.000,132.667 566.000,133.333 565.000,134.000 C565.000,134.333 565.000,134.667 565.000,135.000 C564.333,135.333 563.667,135.667 563.000,136.000 C563.000,136.667 563.000,137.333 563.000,138.000 C562.333,138.333 561.667,138.667 561.000,139.000 C559.104,141.030 557.744,142.748 557.000,146.000 ZM356.000,60.000 C356.000,69.332 356.000,78.668 356.000,88.000 C335.335,88.000 314.665,88.000 294.000,88.000 C291.345,92.448 289.963,91.002 290.000,99.000 C291.139,100.139 290.398,99.004 291.000,101.000 C292.000,101.333 293.000,101.667 294.000,102.000 C295.857,103.568 300.607,102.997 304.000,103.000 C313.666,103.000 323.334,103.000 333.000,103.000 C333.000,103.333 333.000,103.667 333.000,104.000 C335.666,104.333 338.334,104.667 341.000,105.000 C341.000,105.333 341.000,105.667 341.000,106.000 C341.667,106.000 342.333,106.000 343.000,106.000 C343.000,106.333 343.000,106.667 343.000,107.000 C343.667,107.000 344.333,107.000 345.000,107.000 C345.000,107.333 345.000,107.667 345.000,108.000 C345.667,108.000 346.333,108.000 347.000,108.000 C347.000,108.333 347.000,108.667 347.000,109.000 C347.667,109.000 348.333,109.000 349.000,109.000 C349.333,109.667 349.667,110.333 350.000,111.000 C350.667,111.000 351.333,111.000 352.000,111.000 C352.000,111.333 352.000,111.667 352.000,112.000 C353.333,113.000 354.667,114.000 356.000,115.000 C356.000,115.667 356.000,116.333 356.000,117.000 C357.000,117.667 358.000,118.333 359.000,119.000 C359.333,120.333 359.667,121.667 360.000,123.000 C360.333,123.000 360.667,123.000 361.000,123.000 C364.784,131.617 363.156,148.402 359.000,155.000 C358.333,155.333 357.667,155.667 357.000,156.000 C357.000,156.667 357.000,157.333 357.000,158.000 C356.333,158.333 355.667,158.667 355.000,159.000 C355.000,159.667 355.000,160.333 355.000,161.000 C350.667,164.000 346.333,167.000 342.000,170.000 C340.000,170.333 338.000,170.667 336.000,171.000 C336.000,171.333 336.000,171.667 336.000,172.000 C330.193,173.933 318.489,173.000 311.000,173.000 C294.335,173.000 277.665,173.000 261.000,173.000 C261.000,163.668 261.000,154.332 261.000,145.000 C275.856,142.590 295.443,144.000 312.000,144.000 C317.577,144.000 328.318,145.535 332.000,143.000 C334.292,141.422 334.018,137.961 334.000,134.000 C326.301,130.013 309.093,131.925 298.000,132.000 C295.677,130.042 291.502,132.130 288.000,131.000 C288.000,130.667 288.000,130.333 288.000,130.000 C286.000,129.667 284.000,129.333 282.000,129.000 C281.667,128.333 281.333,127.667 281.000,127.000 C280.000,127.000 279.000,127.000 278.000,127.000 C277.667,126.333 277.333,125.667 277.000,125.000 C276.333,125.000 275.667,125.000 275.000,125.000 C274.667,124.333 274.333,123.667 274.000,123.000 C272.000,121.333 270.000,119.666 268.000,118.000 C268.000,117.333 268.000,116.667 268.000,116.000 C267.333,115.667 266.667,115.333 266.000,115.000 C266.000,114.333 266.000,113.667 266.000,113.000 C265.667,113.000 265.333,113.000 265.000,113.000 C264.667,111.667 264.333,110.333 264.000,109.000 C263.667,109.000 263.333,109.000 263.000,109.000 C263.000,108.000 263.000,107.000 263.000,106.000 C262.667,106.000 262.333,106.000 262.000,106.000 C262.000,104.667 262.000,103.333 262.000,102.000 C261.667,102.000 261.333,102.000 261.000,102.000 C259.452,96.771 261.623,85.125 263.000,82.000 C263.333,82.000 263.667,82.000 264.000,82.000 C264.333,80.667 264.667,79.333 265.000,78.000 C265.333,78.000 265.667,78.000 266.000,78.000 C266.333,76.667 266.667,75.333 267.000,74.000 C268.000,73.333 269.000,72.667 270.000,72.000 C271.667,70.000 273.334,68.000 275.000,66.000 C275.667,66.000 276.333,66.000 277.000,66.000 C277.333,65.333 277.667,64.667 278.000,64.000 C278.667,64.000 279.333,64.000 280.000,64.000 C280.000,63.667 280.000,63.333 280.000,63.000 C281.000,63.000 282.000,63.000 283.000,63.000 C283.000,62.667 283.000,62.333 283.000,62.000 C283.667,62.000 284.333,62.000 285.000,62.000 C285.000,61.667 285.000,61.333 285.000,61.000 C286.000,61.000 287.000,61.000 288.000,61.000 C288.000,60.667 288.000,60.333 288.000,60.000 C310.664,60.000 333.336,60.000 356.000,60.000 ZM177.000,84.000 C177.000,84.333 177.000,84.667 177.000,85.000 C175.667,85.000 174.333,85.000 173.000,85.000 C173.000,85.333 173.000,85.667 173.000,86.000 C170.207,86.564 168.823,87.531 167.000,89.000 C167.000,89.333 167.000,89.667 167.000,90.000 C166.333,90.000 165.667,90.000 165.000,90.000 C165.000,90.333 165.000,90.667 165.000,91.000 C164.000,91.667 163.000,92.333 162.000,93.000 C162.000,93.667 162.000,94.333 162.000,95.000 C161.333,95.333 160.667,95.667 160.000,96.000 C156.623,101.366 155.994,107.155 156.000,116.000 C156.000,119.000 156.000,122.000 156.000,125.000 C156.333,125.000 156.667,125.000 157.000,125.000 C157.000,126.000 157.000,127.000 157.000,128.000 C157.333,128.000 157.667,128.000 158.000,128.000 C158.000,128.667 158.000,129.333 158.000,130.000 C158.333,130.000 158.667,130.000 159.000,130.000 C159.000,130.667 159.000,131.333 159.000,132.000 C160.430,134.608 162.891,136.986 165.000,139.000 C165.333,139.667 165.667,140.333 166.000,141.000 C167.333,141.333 168.667,141.667 170.000,142.000 C173.248,143.781 171.487,144.748 177.000,145.000 C177.000,145.333 177.000,145.667 177.000,146.000 C178.861,147.072 192.913,145.455 194.000,145.000 C194.000,144.667 194.000,144.333 194.000,144.000 C194.667,144.000 195.333,144.000 196.000,144.000 C196.333,143.333 196.667,142.667 197.000,142.000 C198.333,141.667 199.667,141.333 201.000,141.000 C201.333,140.333 201.667,139.667 202.000,139.000 C203.666,137.667 205.333,136.333 207.000,135.000 C207.333,133.667 207.667,132.333 208.000,131.000 C208.667,130.667 209.333,130.333 210.000,130.000 C210.000,129.333 210.000,128.667 210.000,128.000 C210.333,128.000 210.667,128.000 211.000,128.000 C211.000,127.000 211.000,126.000 211.000,125.000 C211.667,124.667 212.333,124.333 213.000,124.000 C213.000,118.334 213.000,112.666 213.000,107.000 C210.745,104.937 212.290,104.740 211.000,102.000 C210.667,102.000 210.333,102.000 210.000,102.000 C210.000,101.333 210.000,100.667 210.000,100.000 C209.667,100.000 209.333,100.000 209.000,100.000 C208.667,99.000 208.333,98.000 208.000,97.000 C207.333,96.667 206.667,96.333 206.000,96.000 C206.000,95.333 206.000,94.667 206.000,94.000 C205.333,93.667 204.667,93.333 204.000,93.000 C203.000,91.667 202.000,90.333 201.000,89.000 C200.333,89.000 199.667,89.000 199.000,89.000 C198.667,88.333 198.333,87.667 198.000,87.000 C192.898,83.791 185.443,83.921 177.000,84.000 ZM424.000,84.000 C424.000,84.333 424.000,84.667 424.000,85.000 C422.667,85.000 421.333,85.000 420.000,85.000 C420.000,85.333 420.000,85.667 420.000,86.000 C418.667,86.333 417.333,86.667 416.000,87.000 C416.000,87.333 416.000,87.667 416.000,88.000 C415.333,88.000 414.667,88.000 414.000,88.000 C413.667,88.667 413.333,89.333 413.000,90.000 C411.333,91.333 409.666,92.667 408.000,94.000 C408.000,94.667 408.000,95.333 408.000,96.000 C407.333,96.333 406.667,96.667 406.000,97.000 C405.667,98.333 405.333,99.667 405.000,101.000 C404.667,101.000 404.333,101.000 404.000,101.000 C404.000,102.000 404.000,103.000 404.000,104.000 C403.667,104.000 403.333,104.000 403.000,104.000 C403.000,105.667 403.000,107.334 403.000,109.000 C402.667,109.000 402.333,109.000 402.000,109.000 C399.512,117.741 405.112,130.921 408.000,135.000 C409.666,136.333 411.333,137.667 413.000,139.000 C413.333,139.667 413.667,140.333 414.000,141.000 C414.667,141.000 415.333,141.000 416.000,141.000 C416.333,141.667 416.667,142.333 417.000,143.000 C417.667,143.000 418.333,143.000 419.000,143.000 C419.000,143.333 419.000,143.667 419.000,144.000 C419.667,144.000 420.333,144.000 421.000,144.000 C421.000,144.333 421.000,144.667 421.000,145.000 C422.973,145.848 433.804,147.050 437.000,146.000 C437.000,145.667 437.000,145.333 437.000,145.000 C438.000,145.000 439.000,145.000 440.000,145.000 C440.000,144.667 440.000,144.333 440.000,144.000 C442.000,143.333 444.000,142.667 446.000,142.000 C446.333,141.333 446.667,140.667 447.000,140.000 C449.333,138.000 451.667,136.000 454.000,134.000 C454.000,133.333 454.000,132.667 454.000,132.000 C455.000,131.333 456.000,130.667 457.000,130.000 C457.333,128.000 457.667,126.000 458.000,124.000 C458.885,121.549 461.257,115.269 460.000,111.000 C459.667,111.000 459.333,111.000 459.000,111.000 C458.667,108.334 458.333,105.666 458.000,103.000 C457.667,103.000 457.333,103.000 457.000,103.000 C456.667,101.667 456.333,100.333 456.000,99.000 C455.333,98.667 454.667,98.333 454.000,98.000 C454.000,97.333 454.000,96.667 454.000,96.000 C452.000,94.333 450.000,92.666 448.000,91.000 C447.333,90.000 446.667,89.000 446.000,88.000 C444.000,87.333 442.000,86.667 440.000,86.000 C440.000,85.667 440.000,85.333 440.000,85.000 C439.333,85.000 438.667,85.000 438.000,85.000 C438.000,84.667 438.000,84.333 438.000,84.000 C433.334,84.000 428.666,84.000 424.000,84.000 ZM556.000,84.000 C556.000,84.333 556.000,84.667 556.000,85.000 C554.334,85.333 552.667,85.667 551.000,86.000 C551.000,86.333 551.000,86.667 551.000,87.000 C550.333,87.000 549.667,87.000 549.000,87.000 C549.000,87.333 549.000,87.667 549.000,88.000 C548.333,88.000 547.667,88.000 547.000,88.000 C546.000,89.333 545.000,90.667 544.000,92.000 C542.667,93.000 541.333,94.000 540.000,95.000 C540.000,95.667 540.000,96.333 540.000,97.000 C539.333,97.333 538.667,97.667 538.000,98.000 C538.000,98.667 538.000,99.333 538.000,100.000 C537.667,100.000 537.333,100.000 537.000,100.000 C537.000,101.000 537.000,102.000 537.000,103.000 C536.667,103.000 536.333,103.000 536.000,103.000 C536.000,103.667 536.000,104.333 536.000,105.000 C535.667,105.000 535.333,105.000 535.000,105.000 C535.000,111.666 535.000,118.334 535.000,125.000 C535.333,125.000 535.667,125.000 536.000,125.000 C536.333,126.667 536.667,128.334 537.000,130.000 C537.333,130.000 537.667,130.000 538.000,130.000 C538.000,129.667 538.000,129.333 538.000,129.000 C540.703,127.219 541.124,124.657 543.000,122.000 C544.000,121.333 545.000,120.667 546.000,120.000 C546.000,119.333 546.000,118.667 546.000,118.000 C547.000,117.333 548.000,116.667 549.000,116.000 C549.000,115.333 549.000,114.667 549.000,114.000 C550.666,112.667 552.334,111.333 554.000,110.000 C554.333,108.667 554.667,107.333 555.000,106.000 C556.000,105.333 557.000,104.667 558.000,104.000 C558.000,103.333 558.000,102.667 558.000,102.000 C559.000,101.333 560.000,100.667 561.000,100.000 C561.000,99.333 561.000,98.667 561.000,98.000 C562.000,97.333 563.000,96.667 564.000,96.000 C564.333,95.000 564.667,94.000 565.000,93.000 C565.667,92.667 566.333,92.333 567.000,92.000 C567.333,91.000 567.667,90.000 568.000,89.000 C568.333,89.000 568.667,89.000 569.000,89.000 C569.333,88.000 569.667,87.000 570.000,86.000 C570.333,86.000 570.667,86.000 571.000,86.000 C571.000,85.667 571.000,85.333 571.000,85.000 C570.667,85.000 570.333,85.000 570.000,85.000 C567.833,83.013 559.946,83.900 556.000,84.000 ZM675.000,84.000 C675.000,84.333 675.000,84.667 675.000,85.000 C673.334,85.333 671.667,85.667 670.000,86.000 C670.000,86.333 670.000,86.667 670.000,87.000 C669.333,87.000 668.667,87.000 668.000,87.000 C667.667,87.667 667.333,88.333 667.000,89.000 C666.333,89.000 665.667,89.000 665.000,89.000 C664.667,89.667 664.333,90.333 664.000,91.000 C662.334,92.333 660.667,93.667 659.000,95.000 C659.000,95.667 659.000,96.333 659.000,97.000 C658.333,97.333 657.667,97.667 657.000,98.000 C657.000,98.667 657.000,99.333 657.000,100.000 C656.333,100.333 655.667,100.667 655.000,101.000 C655.000,102.000 655.000,103.000 655.000,104.000 C654.667,104.000 654.333,104.000 654.000,104.000 C653.356,105.629 651.377,115.827 652.000,118.000 C652.333,118.000 652.667,118.000 653.000,118.000 C653.000,119.666 653.000,121.333 653.000,123.000 C653.333,123.000 653.667,123.000 654.000,123.000 C654.000,124.000 654.000,125.000 654.000,126.000 C654.333,126.000 654.667,126.000 655.000,126.000 C655.000,127.000 655.000,128.000 655.000,129.000 C655.333,129.000 655.667,129.000 656.000,129.000 C656.000,129.667 656.000,130.333 656.000,131.000 C656.333,131.000 656.667,131.000 657.000,131.000 C657.000,131.667 657.000,132.333 657.000,133.000 C657.667,133.333 658.333,133.667 659.000,134.000 C659.000,134.667 659.000,135.333 659.000,136.000 C660.333,137.000 661.667,138.000 663.000,139.000 C663.000,139.333 663.000,139.667 663.000,140.000 C663.667,140.000 664.333,140.000 665.000,140.000 C665.333,140.667 665.667,141.333 666.000,142.000 C666.667,142.000 667.333,142.000 668.000,142.000 C670.964,143.703 669.942,144.746 675.000,145.000 C676.619,146.479 680.872,146.077 684.000,146.000 C691.461,145.817 697.087,141.904 701.000,138.000 C704.531,134.477 708.233,129.083 710.000,124.000 C711.235,120.447 709.978,105.232 709.000,103.000 C708.667,103.000 708.333,103.000 708.000,103.000 C707.667,101.667 707.333,100.333 707.000,99.000 C706.667,99.000 706.333,99.000 706.000,99.000 C706.000,98.333 706.000,97.667 706.000,97.000 C705.000,96.333 704.000,95.667 703.000,95.000 C703.000,94.333 703.000,93.667 703.000,93.000 C702.333,92.667 701.667,92.333 701.000,92.000 C701.000,91.667 701.000,91.333 701.000,91.000 C700.333,91.000 699.667,91.000 699.000,91.000 C698.333,90.000 697.667,89.000 697.000,88.000 C691.610,84.316 684.353,83.774 675.000,84.000 Z" class="cls-1"/>
</svg>
